<?xml version="1.0"?><svg id="Layer_1" style="enable-background:new 0 0 512 512;" version="1.1" viewBox="0 0 512 512" xml:space="preserve" xmlns="http://www.w3.org/2000/svg" xmlns:xlink="http://www.w3.org/1999/xlink"><style type="text/css">
	.st0{opacity:0.2;}
	.st1{fill:#FFFFFF;}
	.st2{fill:#2D2D2D;}
	.st3{fill:#1C1C1B;}
	.st4{fill:#333538;}
	.st5{fill:#A8B27F;}
	.st6{fill:#EDB17A;}
	.st7{fill:#171A1D;}
	.st8{fill:#AD774B;}
	.st9{fill:#232528;}
	.st10{fill:#606472;}
</style><g id="XMLID_2_"><path class="st0" d="M110,506h305.3c14.7,0,26.6-11.9,26.6-26.6V45.9c0-14.7-11.9-26.6-26.6-26.6H110   c-14.7,0-26.6,11.9-26.6,26.6v433.5C83.4,494.1,95.3,506,110,506z" id="XMLID_8822_"/><path class="st1" d="M96.7,492.7H402c14.7,0,26.6-11.9,26.6-26.6V32.6C428.6,17.9,416.7,6,402,6H96.7   C82,6,70.1,17.9,70.1,32.6v433.5C70.1,480.8,82,492.7,96.7,492.7z" id="XMLID_7916_"/><g id="XMLID_7671_"><path class="st2" d="M400.9,478.9h-303c-7.7,0-14-6.3-14-14V33.7c0-7.7,6.3-14,14-14h303c7.7,0,14,6.3,14,14V465    C414.8,472.7,408.6,478.9,400.9,478.9z" id="XMLID_7906_"/><path class="st3" d="M414.8,137.3V32.6c0-7.1-5.7-12.8-12.8-12.8H96.7c-7.1,0-12.9,5.8-12.9,12.9v104.6H414.8z" id="XMLID_7905_"/><path class="st4" d="M382.2,48.9H116.5c-5.3,0-9.6,4.3-9.6,9.6v58.6c171.1,31.9,285,0,285,0V58.5    C391.8,53.2,387.5,48.9,382.2,48.9z" id="XMLID_7904_"/><path class="st5" d="M256.8,126.6c-47.5,0-96.3-4.5-145.2-13.4V58.5c0-2.7,2.2-4.9,4.9-4.9h265.7    c2.7,0,4.9,2.2,4.9,4.9v55C374.5,116.5,327.3,126.6,256.8,126.6C256.8,126.6,256.8,126.6,256.8,126.6z" id="XMLID_7903_"/><path class="st6" d="M250.9,246.6c-0.1,0-0.2,0-0.2,0" id="XMLID_7902_"/><rect class="st3" height="13" id="XMLID_7901_" width="331" x="83.9" y="144.7"/><g id="XMLID_7898_"><polygon id="XMLID_7900_" points="118.2,78.1 123.2,69.5 128.1,78.1    "/><polygon id="XMLID_7899_" points="128.1,89.9 123.2,98.4 118.2,89.9    "/></g><g id="XMLID_7880_"><path d="M245.8,86.5c1.9,0,3.3-0.5,4.1-1.4c0.8-1,1.2-2.3,1.2-4c0-1.6-0.4-2.9-1.3-3.9c-0.9-1-2.2-1.5-3.9-1.5     c-1.7,0-3.1,0.5-4.2,1.6c-1.1,1-1.6,2.3-1.6,3.9H236l-0.1-0.1c-0.1-2.4,0.8-4.5,2.7-6.2c1.9-1.7,4.3-2.6,7.3-2.6     c3,0,5.3,0.8,7,2.3c1.7,1.5,2.5,3.7,2.5,6.6c0,1.5-0.4,2.9-1.2,4.1c-0.8,1.2-1.9,2.2-3.3,2.9c1.6,0.6,2.8,1.6,3.7,2.9     c0.8,1.3,1.3,2.9,1.3,4.8c0,2.9-0.9,5.2-2.8,6.9c-1.9,1.7-4.3,2.5-7.2,2.5c-2.7,0-5.1-0.8-7.2-2.4c-2.1-1.6-3.1-3.7-3-6.4l0-0.1     h4.1c0,1.6,0.6,2.9,1.7,3.9c1.1,1.1,2.6,1.6,4.4,1.6c1.8,0,3.2-0.5,4.2-1.6c1-1.1,1.5-2.5,1.5-4.3c0-2-0.5-3.5-1.4-4.5     c-0.9-1-2.4-1.5-4.4-1.5h-3.6v-3.4H245.8z" id="XMLID_7896_"/><path d="M278.5,93.9h4.4v3.4h-4.4v7.4h-4.3v-7.4h-13.8v-2.4l13.5-22.2h4.6V93.9z M265,93.9h9.1V78.9l-0.1,0     l-0.4,1.1L265,93.9z" id="XMLID_7893_"/><path d="M288.5,90.5l1.9-17.8h16.1v3.9H294l-1,9.2c0.7-0.5,1.5-0.9,2.3-1.3c0.8-0.3,1.8-0.5,2.9-0.5     c3,0,5.3,0.9,7,2.8c1.7,1.9,2.5,4.5,2.5,7.8c0,3.2-0.9,5.8-2.6,7.8c-1.7,2-4.2,2.9-7.6,2.9c-2.7,0-5-0.7-6.8-2.2     c-1.8-1.5-2.7-3.7-2.6-6.5l0-0.1h3.9c0,1.7,0.5,3.1,1.5,4.1c1,1,2.3,1.4,3.9,1.4c1.8,0,3.3-0.6,4.3-1.9c1-1.3,1.5-3.1,1.5-5.3     c0-2-0.5-3.7-1.5-5c-1-1.3-2.4-1.9-4.3-1.9c-1.7,0-2.9,0.3-3.7,0.8c-0.8,0.5-1.3,1.3-1.7,2.4L288.5,90.5z" id="XMLID_7891_"/><path d="M326.7,92.9h-13v-3.4h13V92.9z" id="XMLID_7889_"/><path d="M352.6,80.8c0,1.7-0.5,3.1-1.4,4.4c-0.9,1.3-2.2,2.2-3.7,2.9c1.8,0.6,3.3,1.6,4.4,3     c1.1,1.4,1.7,3,1.7,4.8c0,3-1,5.2-2.9,6.9c-1.9,1.6-4.4,2.4-7.3,2.4c-3.1,0-5.7-0.8-7.7-2.4c-2-1.6-3-3.9-3-6.9     c0-1.8,0.6-3.4,1.7-4.8c1.1-1.4,2.6-2.4,4.6-3c-1.6-0.6-2.9-1.6-3.9-2.8c-1-1.3-1.4-2.7-1.4-4.4c0-2.8,0.9-5,2.7-6.4     c1.8-1.5,4.1-2.2,7-2.2c2.7,0,5,0.7,6.7,2.2C351.8,75.9,352.6,78,352.6,80.8z M349.2,95.8c0-1.7-0.6-3.2-1.7-4.3     c-1.1-1.1-2.5-1.7-4.2-1.7c-1.8,0-3.3,0.6-4.5,1.7c-1.2,1.1-1.8,2.6-1.8,4.3c0,1.8,0.6,3.3,1.8,4.3c1.2,1.1,2.7,1.6,4.6,1.6     c1.7,0,3.1-0.5,4.2-1.6C348.6,99.1,349.2,97.6,349.2,95.8z M348.3,80.9c0-1.5-0.5-2.8-1.4-3.8c-1-1-2.2-1.5-3.6-1.5     c-1.6,0-2.9,0.5-3.9,1.4c-1,1-1.5,2.3-1.5,3.9c0,1.6,0.5,3,1.5,4c1,1,2.3,1.5,3.9,1.5c1.4,0,2.6-0.5,3.6-1.5     C347.8,83.9,348.3,82.5,348.3,80.9z" id="XMLID_7885_"/><path d="M378.1,80.8c0,1.7-0.5,3.1-1.4,4.4c-0.9,1.3-2.2,2.2-3.7,2.9c1.8,0.6,3.3,1.6,4.4,3     c1.1,1.4,1.7,3,1.7,4.8c0,3-1,5.2-2.9,6.9c-1.9,1.6-4.4,2.4-7.3,2.4c-3.1,0-5.7-0.8-7.7-2.4c-2-1.6-3-3.9-3-6.9     c0-1.8,0.6-3.4,1.7-4.8c1.1-1.4,2.6-2.4,4.6-3c-1.6-0.6-2.9-1.6-3.9-2.8c-1-1.3-1.4-2.7-1.4-4.4c0-2.8,0.9-5,2.7-6.4     c1.8-1.5,4.1-2.2,7-2.2c2.7,0,5,0.7,6.7,2.2C377.2,75.9,378.1,78,378.1,80.8z M374.6,95.8c0-1.7-0.6-3.2-1.7-4.3     c-1.1-1.1-2.5-1.7-4.2-1.7c-1.8,0-3.3,0.6-4.5,1.7c-1.2,1.1-1.8,2.6-1.8,4.3c0,1.8,0.6,3.3,1.8,4.3c1.2,1.1,2.7,1.6,4.6,1.6     c1.7,0,3.1-0.5,4.2-1.6C374.1,99.1,374.6,97.6,374.6,95.8z M373.7,80.9c0-1.5-0.5-2.8-1.4-3.8c-1-1-2.2-1.5-3.6-1.5     c-1.6,0-2.9,0.5-3.9,1.4c-1,1-1.5,2.3-1.5,3.9c0,1.6,0.5,3,1.5,4c1,1,2.3,1.5,3.9,1.5c1.4,0,2.6-0.5,3.6-1.5     C373.2,83.9,373.7,82.5,373.7,80.9z" id="XMLID_7881_"/></g><g id="XMLID_7838_"><g id="XMLID_7842_"><g id="XMLID_7853_"><g id="XMLID_7874_"><g id="XMLID_7877_"><rect class="st7" height="33.7" id="XMLID_7879_" width="49.6" x="94.7" y="272.6"/><rect class="st4" height="33.7" id="XMLID_7878_" width="49.6" x="93.5" y="271.3"/></g><path class="st1" d="M121.9,297.6h-3.4v-14.5l-2.7,0.1v-2.6l6.1-0.6V297.6z" id="XMLID_7875_"/></g><g id="XMLID_7867_"><g id="XMLID_7871_"><rect class="st7" height="32.7" id="XMLID_7873_" width="49.6" x="94.7" y="324.4"/><rect class="st4" height="33.7" id="XMLID_7872_" width="49.6" x="93.5" y="322.1"/></g><path class="st1" d="M122.7,343.2h1.6v2.6h-1.6v3.4h-3.4v-3.4h-5.6l-0.2-2.1l5.8-12h3.4V343.2z M116.5,343.2        h2.8v-6.7l-0.1,0l-0.3,0.6L116.5,343.2z" id="XMLID_7868_"/></g><g id="XMLID_7861_"><g id="XMLID_7864_"><rect class="st7" height="32.7" id="XMLID_7866_" width="49.6" x="94.7" y="376.2"/><rect class="st4" height="33.7" id="XMLID_7865_" width="49.6" x="93.5" y="373.9"/></g><path class="st1" d="M124.5,386.3c-1.7,2.7-2.9,4.7-3.5,6c-0.6,1.3-0.9,3.3-0.9,6v2.8h-3.4v-2.8        c0-2.6,0.4-4.7,1.2-6.4c0.8-1.7,1.9-3.5,3.3-5.6h-7.9v-2.6h11.2V386.3z" id="XMLID_7862_"/></g><g id="XMLID_7854_"><g id="XMLID_7858_"><rect class="st7" height="32.7" id="XMLID_7860_" width="49.6" x="94.7" y="428"/><rect class="st4" height="33.7" id="XMLID_7859_" width="49.6" x="93.5" y="425.7"/></g><path class="st1" d="M124.1,446.7c0,2-0.5,3.6-1.4,4.7c-1,1.1-2.2,1.7-3.8,1.7c-1.6,0-2.8-0.6-3.8-1.7        s-1.4-2.7-1.4-4.7v-5.1c0-2,0.5-3.5,1.4-4.7c1-1.1,2.2-1.7,3.8-1.7c1.6,0,2.8,0.6,3.8,1.7s1.4,2.7,1.4,4.7V446.7z         M120.7,441.5c0-1.1-0.2-2-0.5-2.7c-0.3-0.6-0.8-1-1.3-1c-0.6,0-1,0.3-1.3,1c-0.3,0.6-0.5,1.5-0.5,2.7v5.4        c0,1.2,0.2,2.1,0.5,2.7c0.3,0.6,0.8,0.9,1.3,0.9c0.6,0,1-0.3,1.3-0.9c0.3-0.6,0.5-1.5,0.5-2.7V441.5z" id="XMLID_7855_"/></g></g><g id="XMLID_7843_"><g id="XMLID_7850_"><rect class="st8" height="33.7" id="XMLID_7852_" width="49.6" x="94.7" y="221.6"/><rect class="st6" height="33.7" id="XMLID_7851_" width="49.6" x="93.5" y="220.3"/></g><g id="XMLID_7844_"><path class="st1" d="M106.3,237.6c0-2.1,0.5-3.9,1.6-5.2c1-1.3,2.5-2,4.4-2c1.9,0,3.4,0.7,4.4,2        c1,1.3,1.6,3.1,1.6,5.2v0.3c0,2.1-0.5,3.9-1.6,5.2c-1,1.3-2.5,2-4.4,2c-1.9,0-3.4-0.7-4.4-2c-1-1.3-1.6-3.1-1.6-5.2V237.6z         M110.1,237.9c0,1.3,0.2,2.4,0.5,3.2c0.3,0.8,0.9,1.2,1.7,1.2c0.8,0,1.3-0.4,1.7-1.2c0.3-0.8,0.5-1.8,0.5-3.1v-0.3        c0-1.3-0.2-2.4-0.5-3.1c-0.3-0.8-0.9-1.2-1.7-1.2c-0.8,0-1.3,0.4-1.7,1.2c-0.3,0.8-0.5,1.8-0.5,3.1V237.9z" id="XMLID_7847_"/><path class="st1" d="M123.8,230.7l0.2,2c0.4-0.7,0.9-1.3,1.5-1.7c0.6-0.4,1.3-0.6,2-0.6        c1.2,0,2.2,0.5,2.9,1.4c0.7,0.9,1.1,2.4,1.1,4.4v8.6h-3.8v-8.6c0-1.1-0.1-1.8-0.4-2.3c-0.3-0.4-0.7-0.7-1.2-0.7        c-0.4,0-0.8,0.1-1.1,0.3c-0.3,0.2-0.6,0.5-0.8,0.8v10.5h-3.8v-14.2H123.8z" id="XMLID_7845_"/></g></g></g><g id="XMLID_7839_"><path class="st9" d="M134.9,186h-31.6c-4.9,0-8.8,4-8.8,8.8v0c0,4.9,4,8.8,8.8,8.8h31.6c4.9,0,8.8-4,8.8-8.8v0      C143.7,190,139.8,186,134.9,186z" id="XMLID_7841_"/><path class="st10" d="M134.4,185.4h-31.6c-4.9,0-8.8,4-8.8,8.8v0c0,4.9,4,8.8,8.8,8.8h31.6      c4.9,0,8.8-4,8.8-8.8v0C143.3,189.4,139.3,185.4,134.4,185.4z" id="XMLID_7840_"/></g></g><g id="XMLID_7791_"><g id="XMLID_7795_"><g id="XMLID_7806_"><g id="XMLID_7832_"><g id="XMLID_7835_"><rect class="st7" height="33.7" id="XMLID_7837_" width="49.6" x="161.3" y="271.6"/><rect class="st4" height="33.7" id="XMLID_7836_" width="49.6" x="160" y="270.4"/></g><path class="st1" d="M190.7,296.7h-10.6V294l5.2-5.9c0.7-0.9,1.1-1.6,1.3-2.1c0.2-0.5,0.3-1.2,0.3-1.9        c0-0.8-0.1-1.4-0.4-1.8c-0.2-0.4-0.7-0.7-1.3-0.7c-0.6,0-1,0.3-1.3,0.8c-0.3,0.5-0.5,1.2-0.5,2h-3.3l0-0.1        c0-1.5,0.4-2.8,1.4-3.8c0.9-1,2.2-1.6,3.8-1.6c1.6,0,2.9,0.4,3.8,1.3c0.9,0.9,1.3,2.2,1.3,3.8c0,1.2-0.3,2.2-0.8,3.2        c-0.5,0.9-1.4,2-2.6,3.3l-2.4,3.3h6.2V296.7z" id="XMLID_7833_"/></g><g id="XMLID_7826_"><g id="XMLID_7829_"><rect class="st7" height="33.7" id="XMLID_7831_" width="49.6" x="161.3" y="323.4"/><rect class="st4" height="33.7" id="XMLID_7830_" width="49.6" x="160" y="322.2"/></g><path class="st1" d="M180.6,340.5l0.9-9.7h8.3v2.7h-5.5l-0.4,4.2c0.3-0.3,0.6-0.5,1-0.7        c0.4-0.2,0.8-0.3,1.2-0.3c1.4,0,2.5,0.5,3.3,1.5c0.8,1,1.1,2.5,1.1,4.4c0,1.7-0.4,3.1-1.3,4.2c-0.9,1.1-2.2,1.6-4,1.6        c-1.4,0-2.6-0.4-3.6-1.3c-1-0.8-1.4-2-1.4-3.5l0-0.1l3.3-0.2c0,0.7,0.2,1.3,0.5,1.7c0.3,0.4,0.7,0.6,1.2,0.6        c0.6,0,1.1-0.3,1.4-0.8c0.3-0.5,0.4-1.3,0.4-2.4c0-1-0.2-1.9-0.5-2.5c-0.3-0.6-0.8-0.9-1.4-0.9c-0.4,0-0.8,0.1-1,0.4        c-0.2,0.3-0.4,0.6-0.5,1L180.6,340.5z" id="XMLID_7827_"/></g><g id="XMLID_7818_"><g id="XMLID_7823_"><rect class="st7" height="32.7" id="XMLID_7825_" width="49.6" x="161.3" y="375.2"/><rect class="st4" height="33.7" id="XMLID_7824_" width="49.6" x="160" y="373"/></g><path class="st1" d="M190.3,387.3c0,0.9-0.2,1.6-0.6,2.3c-0.4,0.7-0.9,1.2-1.6,1.5c0.8,0.4,1.5,0.9,2,1.7        c0.5,0.7,0.7,1.6,0.7,2.5c0,1.6-0.5,2.9-1.5,3.8c-1,0.9-2.2,1.3-3.8,1.3c-1.6,0-2.9-0.5-3.9-1.3c-1-0.9-1.5-2.2-1.5-3.8        c0-1,0.2-1.8,0.7-2.5c0.5-0.7,1.2-1.3,2-1.7c-0.7-0.4-1.3-0.9-1.7-1.6c-0.4-0.7-0.6-1.4-0.6-2.3c0-1.5,0.5-2.7,1.4-3.5        c0.9-0.8,2.1-1.2,3.6-1.2c1.4,0,2.6,0.4,3.5,1.2C189.9,384.5,190.3,385.7,190.3,387.3z M187.3,395.1c0-0.8-0.2-1.5-0.5-1.9        c-0.3-0.5-0.8-0.7-1.3-0.7c-0.6,0-1.1,0.2-1.5,0.7c-0.4,0.5-0.5,1.1-0.5,1.9c0,0.8,0.2,1.5,0.5,1.9c0.4,0.5,0.9,0.7,1.5,0.7        c0.5,0,1-0.2,1.3-0.7C187.2,396.6,187.3,395.9,187.3,395.1z M186.9,387.4c0-0.7-0.1-1.3-0.4-1.7c-0.3-0.4-0.6-0.6-1-0.6        c-0.5,0-0.9,0.2-1.2,0.6c-0.3,0.4-0.4,1-0.4,1.7c0,0.7,0.1,1.3,0.4,1.7c0.3,0.4,0.7,0.6,1.2,0.6c0.4,0,0.8-0.2,1-0.6        C186.8,388.7,186.9,388.1,186.9,387.4z" id="XMLID_7819_"/></g><g id="XMLID_7807_"><g id="XMLID_7815_"><rect class="st7" height="33.7" id="XMLID_7817_" width="49.6" x="161.3" y="427"/><rect class="st4" height="33.7" id="XMLID_7816_" width="49.6" x="160" y="424.8"/></g><g id="XMLID_7808_"><path class="st1" d="M183.4,445.8c0,2-0.5,3.6-1.4,4.7c-1,1.1-2.2,1.7-3.8,1.7c-1.6,0-2.8-0.6-3.8-1.7         s-1.4-2.7-1.4-4.7v-5.1c0-2,0.5-3.5,1.4-4.7c1-1.1,2.2-1.7,3.8-1.7c1.6,0,2.8,0.6,3.8,1.7c1,1.1,1.4,2.7,1.4,4.7V445.8z          M180,440.5c0-1.1-0.2-2-0.5-2.7c-0.3-0.6-0.8-1-1.3-1c-0.6,0-1,0.3-1.3,1c-0.3,0.6-0.5,1.5-0.5,2.7v5.4         c0,1.2,0.2,2.1,0.5,2.7c0.3,0.6,0.8,0.9,1.3,0.9c0.6,0,1-0.3,1.3-0.9c0.3-0.6,0.5-1.5,0.5-2.7V440.5z" id="XMLID_7812_"/><path class="st1" d="M197.9,445.8c0,2-0.5,3.6-1.4,4.7c-1,1.1-2.2,1.7-3.8,1.7c-1.6,0-2.8-0.6-3.8-1.7         c-1-1.1-1.4-2.7-1.4-4.7v-5.1c0-2,0.5-3.5,1.4-4.7c1-1.1,2.2-1.7,3.8-1.7c1.6,0,2.8,0.6,3.8,1.7s1.4,2.7,1.4,4.7V445.8z          M194.5,440.5c0-1.1-0.2-2-0.5-2.7c-0.3-0.6-0.8-1-1.3-1c-0.6,0-1,0.3-1.3,1c-0.3,0.6-0.5,1.5-0.5,2.7v5.4         c0,1.2,0.2,2.1,0.5,2.7c0.3,0.6,0.8,0.9,1.3,0.9c0.6,0,1-0.3,1.3-0.9c0.3-0.6,0.5-1.5,0.5-2.7V440.5z" id="XMLID_7809_"/></g></g></g><g id="XMLID_7796_"><g id="XMLID_7803_"><rect class="st8" height="33.7" id="XMLID_7805_" width="49.6" x="160.8" y="220.6"/><rect class="st6" height="33.7" id="XMLID_7804_" width="49.6" x="159.5" y="219.4"/></g><g id="XMLID_7797_"><rect class="st1" height="3" id="XMLID_7802_" transform="matrix(-0.7071 0.7071 -0.7071 -0.7071 481.9127 274.4215)" width="18.6" x="174.8" y="235.5"/><g id="XMLID_7799_"><rect class="st1" height="1.7" id="XMLID_7801_" width="7.3" x="174.9" y="230.6"/><rect class="st1" height="7.3" id="XMLID_7800_" width="1.7" x="177.7" y="227.8"/></g><rect class="st1" height="2.1" id="XMLID_7798_" width="9.1" x="185.1" y="241.5"/></g></g></g><g id="XMLID_7792_"><path class="st9" d="M199.6,185.1H168c-4.9,0-8.8,4-8.8,8.8v0c0,4.9,4,8.8,8.8,8.8h31.6c4.9,0,8.8-4,8.8-8.8v0      C208.4,189,204.5,185.1,199.6,185.1z" id="XMLID_7794_"/><path class="st10" d="M199.1,184.5h-31.6c-4.9,0-8.8,4-8.8,8.8v0c0,4.9,4,8.8,8.8,8.8h31.6      c4.9,0,8.8-4,8.8-8.8v0C208,188.4,204,184.5,199.1,184.5z" id="XMLID_7793_"/></g></g><g id="XMLID_7752_"><g id="XMLID_7756_"><g id="XMLID_7785_"><g id="XMLID_7788_"><rect class="st7" height="33.7" id="XMLID_7790_" width="49.6" x="227" y="271.6"/><rect class="st4" height="33.7" id="XMLID_7789_" width="49.6" x="225.7" y="270.4"/></g><path class="st1" d="M251.1,286.4c0.6,0,1-0.2,1.3-0.7c0.3-0.4,0.4-1.1,0.4-1.8c0-0.7-0.2-1.2-0.5-1.7       c-0.3-0.4-0.8-0.7-1.4-0.7c-0.5,0-0.8,0.2-1.1,0.6c-0.3,0.4-0.4,0.9-0.4,1.5H246l0-0.1c0-1.4,0.4-2.5,1.4-3.4       c0.9-0.9,2.1-1.3,3.6-1.3c1.6,0,2.9,0.4,3.9,1.3c0.9,0.9,1.4,2.1,1.4,3.7c0,0.8-0.2,1.5-0.6,2.2c-0.4,0.7-0.9,1.2-1.6,1.6       c0.8,0.3,1.4,0.9,1.8,1.5c0.4,0.7,0.6,1.5,0.6,2.5c0,1.6-0.5,2.8-1.5,3.7c-1,0.9-2.4,1.3-4,1.3c-1.4,0-2.6-0.4-3.7-1.3       c-1-0.8-1.5-2.1-1.5-3.7l0-0.1h3.3c0,0.7,0.2,1.3,0.5,1.7c0.3,0.5,0.8,0.7,1.3,0.7c0.6,0,1.1-0.2,1.5-0.7       c0.4-0.5,0.6-1.1,0.6-1.8c0-0.9-0.2-1.6-0.5-2.1c-0.3-0.4-0.8-0.7-1.4-0.7h-2v-2.6H251.1z" id="XMLID_7786_"/></g><g id="XMLID_7778_"><g id="XMLID_7782_"><rect class="st7" height="33.7" id="XMLID_7784_" width="49.6" x="227" y="323.4"/><rect class="st4" height="33.7" id="XMLID_7783_" width="49.6" x="225.7" y="322.2"/></g><path class="st1" d="M251.7,330.7c0.6,0,1.1,0.1,1.6,0.2c0.5,0.1,1,0.3,1.5,0.5l-0.6,2.5       c-0.5-0.2-0.9-0.3-1.3-0.4c-0.4-0.1-0.8-0.1-1.3-0.1c-0.8,0-1.4,0.3-1.8,1c-0.5,0.6-0.7,1.5-0.7,2.7v1.2       c0.4-0.4,0.8-0.7,1.3-0.9c0.5-0.2,1-0.3,1.6-0.3c1.5,0,2.6,0.5,3.3,1.5c0.8,1,1.1,2.4,1.1,4.2c0,1.7-0.5,3.1-1.5,4.2       c-1,1.1-2.3,1.6-3.9,1.6c-1.6,0-2.9-0.6-3.9-1.7c-1-1.1-1.5-2.6-1.5-4.6V337c0-1.9,0.6-3.5,1.7-4.6       C248.5,331.2,250,330.7,251.7,330.7z M251.1,339.7c-0.5,0-0.8,0.1-1.2,0.2c-0.3,0.2-0.6,0.4-0.8,0.7v1.8c0,1.1,0.2,2,0.5,2.7       c0.4,0.6,0.8,0.9,1.4,0.9c0.6,0,1.1-0.3,1.4-0.9c0.3-0.6,0.5-1.4,0.5-2.3c0-1-0.2-1.8-0.5-2.3       C252.3,339.9,251.8,339.7,251.1,339.7z" id="XMLID_7779_"/></g><g id="XMLID_7771_"><g id="XMLID_7775_"><rect class="st7" height="33.7" id="XMLID_7777_" width="49.6" x="227" y="375.2"/><rect class="st4" height="33.7" id="XMLID_7776_" width="49.6" x="225.7" y="374"/></g><path class="st1" d="M250.7,397.7c0.7,0,1.2-0.3,1.6-0.9c0.4-0.6,0.7-1.4,0.7-2.4v-1.6       c-0.3,0.5-0.7,0.8-1.2,1.1c-0.5,0.2-0.9,0.4-1.4,0.4c-1.4,0-2.5-0.5-3.3-1.5c-0.8-1-1.2-2.4-1.2-4.2c0-1.7,0.5-3.2,1.5-4.3       c1-1.2,2.2-1.7,3.8-1.7c1.6,0,2.8,0.5,3.8,1.6c1,1.1,1.5,2.6,1.5,4.5v5.8c0,1.8-0.5,3.3-1.6,4.3c-1.1,1.1-2.4,1.6-4.1,1.6       c-0.5,0-1.1-0.1-1.7-0.2c-0.6-0.1-1.1-0.3-1.6-0.6l0.6-2.5c0.4,0.2,0.9,0.3,1.3,0.4C249.7,397.7,250.1,397.7,250.7,397.7z        M251,391.8c0.4,0,0.8-0.1,1.2-0.3c0.3-0.2,0.6-0.5,0.8-0.9v-2.2c0-1.1-0.2-1.9-0.5-2.5c-0.3-0.6-0.8-0.9-1.4-0.9       c-0.5,0-1,0.3-1.3,1c-0.3,0.7-0.5,1.5-0.5,2.4c0,1,0.1,1.8,0.4,2.4C250,391.5,250.4,391.8,251,391.8z" id="XMLID_7772_"/></g><g id="XMLID_7766_"><g id="XMLID_7768_"><rect class="st7" height="33.7" id="XMLID_7770_" width="49.6" x="227" y="427"/><rect class="st4" height="33.7" id="XMLID_7769_" width="49.6" x="225.7" y="425.8"/></g><circle class="st1" cx="251.1" cy="443.2" id="XMLID_7767_" r="4.1"/></g><g id="XMLID_7757_"><g id="XMLID_7763_"><rect class="st8" height="33.7" id="XMLID_7765_" width="49.6" x="226.1" y="220.6"/><rect class="st6" height="33.7" id="XMLID_7764_" width="49.6" x="224.8" y="219.4"/></g><g id="XMLID_7758_"><path class="st1" d="M249.8,242c-0.4,0.6-1,1.1-1.8,1.5c-0.8,0.4-1.8,0.6-3.1,0.6c-1.6,0-2.8-0.5-3.8-1.5        c-1-1-1.4-2.3-1.4-4v-3.8c0-1.7,0.5-3.1,1.4-4c0.9-1,2.2-1.5,3.7-1.5c1.6,0,2.8,0.4,3.6,1.2c0.8,0.8,1.2,1.9,1.2,3.2l0,0.1        h-2.7c0-0.8-0.2-1.3-0.5-1.7c-0.3-0.4-0.8-0.6-1.5-0.6c-0.7,0-1.3,0.3-1.7,0.8c-0.4,0.6-0.6,1.4-0.6,2.4v3.8        c0,1.1,0.2,1.9,0.6,2.5c0.4,0.6,1,0.8,1.8,0.8c0.5,0,1-0.1,1.3-0.2c0.3-0.1,0.6-0.3,0.7-0.6v-2.8h-2.2v-1.9h5.1V242z" id="XMLID_7761_"/><path class="st1" d="M260.7,231.8h-3.5V244h-2.8v-12.2H251v-2.2h9.7V231.8z" id="XMLID_7759_"/></g></g></g><g id="XMLID_7753_"><path class="st9" d="M265.9,185.1h-31.6c-4.9,0-8.8,4-8.8,8.8v0c0,4.9,4,8.8,8.8,8.8h31.6c4.9,0,8.8-4,8.8-8.8      v0C274.8,189,270.8,185.1,265.9,185.1z" id="XMLID_7755_"/><path class="st10" d="M265.5,184.5h-31.6c-4.9,0-8.8,4-8.8,8.8v0c0,4.9,4,8.8,8.8,8.8h31.6      c4.9,0,8.8-4,8.8-8.8v0C274.3,188.4,270.3,184.5,265.5,184.5z" id="XMLID_7754_"/></g></g><g id="XMLID_7713_"><g id="XMLID_7717_"><g id="XMLID_7749_"><rect class="st9" height="33.7" id="XMLID_7751_" width="49.6" x="292.3" y="375.9"/><rect class="st10" height="33.7" id="XMLID_7750_" width="49.6" x="291" y="374.6"/></g><g id="XMLID_7746_"><rect class="st9" height="33.7" id="XMLID_7748_" width="49.6" x="292.3" y="427"/><rect class="st10" height="33.7" id="XMLID_7747_" width="49.6" x="291" y="425.8"/></g><g id="XMLID_7739_"><g id="XMLID_7743_"><rect class="st9" height="33.7" id="XMLID_7745_" width="49.6" x="292.9" y="324.1"/><rect class="st10" height="33.7" id="XMLID_7744_" width="49.6" x="291.7" y="322.8"/></g><g id="XMLID_7740_"><rect class="st1" height="3" id="XMLID_7742_" transform="matrix(0.7071 0.7071 -0.7071 0.7071 333.4718 -124.5461)" width="18.6" x="307.8" y="338.8"/><rect class="st1" height="3" id="XMLID_7741_" transform="matrix(-0.7071 0.7071 -0.7071 -0.7071 781.8855 356.6585)" width="18.6" x="307.8" y="338.8"/></g></g><g id="XMLID_7734_"><g id="XMLID_7736_"><rect class="st9" height="33.7" id="XMLID_7738_" width="49.6" x="292.9" y="272.3"/><rect class="st10" height="33.7" id="XMLID_7737_" width="49.6" x="291.7" y="271"/></g><rect class="st1" height="3" id="XMLID_7735_" transform="matrix(-0.7071 0.7071 -0.7071 -0.7071 745.2582 268.2324)" width="18.6" x="307.8" y="287"/></g><rect class="st1" height="3" id="XMLID_7733_" width="18.6" x="307.1" y="390.6"/><g id="XMLID_7727_"><path class="st1" d="M311.7,442.7H310v-7.2l-1.3,0v-1.3l3-0.3V442.7z" id="XMLID_7731_"/><path class="st1" d="M321.3,447.4L321.3,447.4l0.9-2.4h2.3l-1.9,3.7l2,3.8h-2.2l-0.9-2.5h0l-0.9,2.5h-2.3       l2-3.8l-1.9-3.7h2.2L321.3,447.4z" id="XMLID_7729_"/><rect class="st1" height="3" id="XMLID_7728_" transform="matrix(-0.7071 0.7071 -0.7071 -0.7071 852.9748 533.5253)" width="18.6" x="306.7" y="441.9"/></g><g id="XMLID_7718_"><g id="XMLID_7724_"><rect class="st9" height="33.7" id="XMLID_7726_" width="49.6" x="291.9" y="221.3"/><rect class="st10" height="33.7" id="XMLID_7725_" width="49.6" x="290.6" y="220"/></g><g id="XMLID_7719_"><path class="st1" d="M316,240L316,240c0,1.6-0.4,2.8-1.2,3.6c-0.8,0.8-2,1.2-3.5,1.2c-1.6,0-2.8-0.5-3.7-1.5        c-0.9-1-1.4-2.3-1.4-4.1v-3.7c0-1.7,0.4-3.1,1.3-4.1c0.9-1,2.1-1.5,3.6-1.5c1.6,0,2.8,0.4,3.7,1.2s1.3,2,1.3,3.5l0,0.1h-2.7        c0-0.9-0.2-1.6-0.5-2c-0.3-0.4-0.9-0.6-1.7-0.6c-0.7,0-1.2,0.3-1.6,0.9c-0.4,0.6-0.5,1.4-0.5,2.5v3.7c0,1.1,0.2,1.9,0.6,2.5        c0.4,0.6,1,0.9,1.7,0.9c0.7,0,1.2-0.2,1.5-0.6c0.3-0.4,0.5-1.1,0.5-2H316z" id="XMLID_7722_"/><path class="st1" d="M325.1,238.3h-4.5v4.2h5.4v2.2h-8.2v-14.4h8.2v2.2h-5.3v3.7h4.5V238.3z" id="XMLID_7720_"/></g></g></g><g id="XMLID_7714_"><path class="st9" d="M332.8,185.7h-31.6c-4.9,0-8.8,4-8.8,8.8v0c0,4.9,4,8.8,8.8,8.8h31.6c4.9,0,8.8-4,8.8-8.8      v0C341.6,189.7,337.6,185.7,332.8,185.7z" id="XMLID_7716_"/><path class="st10" d="M332.3,185.1h-31.6c-4.9,0-8.8,4-8.8,8.8v0c0,4.9,4,8.8,8.8,8.8h31.6      c4.9,0,8.8-4,8.8-8.8v0C341.1,189,337.2,185.1,332.3,185.1z" id="XMLID_7715_"/></g></g><g id="XMLID_7672_"><g id="XMLID_7676_"><g id="XMLID_7710_"><polygon class="st9" id="XMLID_7712_" points="407,408.9 357.4,408.9 358,323.4 407.6,323.4      "/><polygon class="st10" id="XMLID_7711_" points="405.7,407.6 356.1,407.6 356.8,322.2 406.3,322.2      "/></g><g id="XMLID_7707_"><rect class="st9" height="33.7" id="XMLID_7709_" width="49.6" x="357.4" y="427"/><rect class="st10" height="33.7" id="XMLID_7708_" width="49.6" x="356.1" y="425.8"/></g><g id="XMLID_7704_"><rect class="st1" height="3" id="XMLID_7706_" width="18.6" x="374" y="437.2"/><rect class="st1" height="3" id="XMLID_7705_" width="18.6" x="374" y="446.2"/></g><g id="XMLID_7692_"><g id="XMLID_7701_"><rect class="st9" height="33.7" id="XMLID_7703_" width="49.6" x="359.2" y="271.6"/><rect class="st10" height="33.7" id="XMLID_7702_" width="49.6" x="357.9" y="270.4"/></g><g id="XMLID_7693_"><rect class="st1" height="3" id="XMLID_7700_" transform="matrix(-0.7071 0.7071 -0.7071 -0.7071 857.953 220.2725)" width="18.6" x="374" y="286.3"/><path class="st1" d="M378.3,278.4c-1.8,0-3.3,1.9-3.3,4.3c0,2.4,1.5,4.3,3.3,4.3s3.3-1.9,3.3-4.3        C381.5,280.3,380.1,278.4,378.3,278.4z M378.3,284.6c-0.8,0-1.4-0.9-1.4-1.9c0-1.1,0.6-1.9,1.4-1.9c0.8,0,1.4,0.9,1.4,1.9        C379.7,283.8,379.1,284.6,378.3,284.6z" id="XMLID_7697_"/><path class="st1" d="M388.4,288.6c-1.8,0-3.3,1.9-3.3,4.3c0,2.4,1.5,4.3,3.3,4.3s3.3-1.9,3.3-4.3        C391.7,290.5,390.3,288.6,388.4,288.6z M388.4,294.8c-0.8,0-1.4-0.9-1.4-1.9c0-1.1,0.6-1.9,1.4-1.9c0.8,0,1.4,0.9,1.4,1.9        C389.9,294,389.2,294.8,388.4,294.8z" id="XMLID_7694_"/></g></g><g id="XMLID_7689_"><rect class="st1" height="3" id="XMLID_7691_" width="18.6" x="374.4" y="364"/><rect class="st1" height="18.6" id="XMLID_7690_" width="3" x="382.2" y="356.2"/></g><g id="XMLID_7677_"><g id="XMLID_7686_"><rect class="st9" height="33.7" id="XMLID_7688_" width="49.6" x="357.4" y="220.6"/><rect class="st10" height="33.7" id="XMLID_7687_" width="49.6" x="356.1" y="219.4"/></g><g id="XMLID_7678_"><g id="XMLID_7683_"><rect class="st1" height="1.7" id="XMLID_7685_" transform="matrix(0.7071 0.7071 -0.7071 0.7071 279.2074 -200.4306)" width="10.7" x="376.2" y="236"/><rect class="st1" height="1.7" id="XMLID_7684_" transform="matrix(-0.7071 0.7071 -0.7071 -0.7071 818.7933 134.4803)" width="10.7" x="376.2" y="236"/></g><g id="XMLID_7679_"><path class="st1" d="M396.7,247h-30.3v-20.4h30.3V247z M367.5,245.9h28.1v-18.2h-28.1V245.9z" id="XMLID_7680_"/></g></g></g></g><g id="XMLID_7673_"><path class="st9" d="M398.5,185.1h-31.6c-4.9,0-8.8,4-8.8,8.8v0c0,4.9,4,8.8,8.8,8.8h31.6c4.9,0,8.8-4,8.8-8.8      v0C407.3,189,403.4,185.1,398.5,185.1z" id="XMLID_7675_"/><path class="st10" d="M398,184.5h-31.6c-4.9,0-8.8,4-8.8,8.8v0c0,4.9,4,8.8,8.8,8.8H398c4.9,0,8.8-4,8.8-8.8v0      C406.8,188.4,402.9,184.5,398,184.5z" id="XMLID_7674_"/></g></g></g></g></svg>